<svg width="250" height="70" viewBox="0 0 250 70" fill="none" xmlns="http://www.w3.org/2000/svg">
<g clip-path="url(#clip0_26_2)">
<rect width="250" height="70" fill="white"/>
<path d="M65.4 44.88V46.12H81V44.88C81 44.16 80.9333 43.4933 80.8 42.88C80.6933 42.2667 80.5467 41.6933 80.36 41.16L77.6 34.64C77.3067 33.9467 77 33.3733 76.68 32.92C76.36 32.44 75.8267 32.2 75.08 32.2H71.16C70.36 32.2 69.8 32.44 69.48 32.92C69.16 33.3733 68.8667 33.9333 68.6 34.6L66.04 41.16C65.8533 41.6933 65.6933 42.2667 65.56 42.88C65.4533 43.4933 65.4 44.16 65.4 44.88ZM71.8 36.6C71.9067 36.36 72.0133 36.1867 72.12 36.08C72.2533 35.9733 72.4 35.92 72.56 35.92H73.56C73.72 35.92 73.8533 35.9733 73.96 36.08C74.0933 36.1867 74.2133 36.36 74.32 36.6L76.2 42.68H69.92L71.8 36.6ZM81 53.4V46.52H65.4V53.4H65V44.88C65 44.1333 65.0533 43.4533 65.16 42.84C65.2933 42.2 65.4667 41.5867 65.68 41L68.24 34.44C68.5333 33.6933 68.8667 33.0667 69.24 32.56C69.6133 32.0533 70.2533 31.8 71.16 31.8H75.08C75.96 31.8 76.5733 32.0533 76.92 32.56C77.2933 33.0667 77.64 33.7067 77.96 34.48L80.72 41C80.9333 41.5867 81.0933 42.2 81.2 42.84C81.3333 43.4533 81.4 44.1333 81.4 44.88V53.4H81ZM69.52 55.56V49.96H76.6V55.56C76.6 56.0667 76.72 56.44 76.96 56.68C77.2267 56.8933 77.6267 57 78.16 57H84.2C84.7067 57 85.0667 56.8933 85.28 56.68C85.52 56.44 85.64 56.0667 85.64 55.56V45C85.64 44.2 85.5067 43.28 85.24 42.24C85 41.2 84.6133 39.9867 84.08 38.6L80.6 29.52C80.44 29.0667 80.1867 28.7333 79.84 28.52C79.52 28.3067 79.1067 28.2 78.6 28.2H67.84C67.3067 28.2 66.8667 28.3067 66.52 28.52C66.2 28.7333 65.96 29.0667 65.8 29.52L62.32 38.6C61.7867 39.9867 61.3867 41.2 61.12 42.24C60.88 43.28 60.76 44.2 60.76 45V55.56C60.76 56.0667 60.8667 56.44 61.08 56.68C61.32 56.8933 61.6933 57 62.2 57H68.08C68.5867 57 68.9467 56.8933 69.16 56.68C69.4 56.44 69.52 56.0667 69.52 55.56ZM64.16 61.36C64.0533 61.4667 63.88 61.56 63.64 61.64C63.4267 61.72 63.1867 61.76 62.92 61.76H57.04C56.4 61.76 55.9333 61.6133 55.64 61.32C55.3467 61.0267 55.2 60.56 55.2 59.92V49.36C55.2 48.5333 55.32 47.6 55.56 46.56C55.8267 45.4933 56.24 44.24 56.8 42.8L60.24 33.76C60.32 33.52 60.4133 33.32 60.52 33.16C60.6533 32.9733 60.7867 32.8133 60.92 32.68L60.96 32.64L66.08 28.36C66.2933 28.1733 66.5467 28.04 66.84 27.96C67.1333 27.8533 67.4667 27.8 67.84 27.8H78.6C79.2133 27.8 79.7067 27.9333 80.08 28.2C80.48 28.44 80.7733 28.8267 80.96 29.36L84.44 38.44C85 39.88 85.4 41.1333 85.64 42.2C85.9067 43.24 86.04 44.1733 86.04 45V55.56C86.04 55.9067 85.9867 56.2 85.88 56.44C85.8 56.68 85.6667 56.88 85.48 57.04L80.28 61.36C80.1733 61.4667 80 61.56 79.76 61.64C79.5467 61.72 79.3067 61.76 79.04 61.76H73C72.3333 61.76 71.84 61.6 71.52 61.28C71.2 60.9867 71.04 60.5333 71.04 59.92V54.72H69.92V55.56C69.92 55.9067 69.8667 56.2 69.76 56.44C69.68 56.68 69.5467 56.88 69.36 57.04L64.16 61.36ZM97.0431 61.76H90.8431C90.2031 61.76 89.7365 61.6133 89.4431 61.32C89.1498 61.0267 89.0031 60.56 89.0031 59.92V34C89.0031 33.6533 89.0431 33.36 89.1231 33.12C89.2298 32.88 89.3765 32.68 89.5631 32.52L94.7231 28.16C94.8565 28.0533 95.0298 27.9733 95.2431 27.92C95.4831 27.84 95.7365 27.8 96.0031 27.8H108.243C110.136 27.8 111.723 28 113.003 28.4C114.283 28.8 115.296 29.36 116.043 30.08C116.79 30.8 117.31 31.6667 117.603 32.68C117.923 33.6933 118.083 34.8 118.083 36V41.12C118.083 42.4 117.896 43.5733 117.523 44.64C117.176 45.68 116.563 46.5733 115.683 47.32L110.483 51.64C109.816 52.2 108.95 52.6667 107.883 53.04C106.843 53.3867 105.563 53.5867 104.043 53.64V55.56C104.043 55.9067 103.99 56.2 103.883 56.44C103.803 56.68 103.67 56.88 103.483 57.04L98.2831 61.36C98.1765 61.4667 98.0031 61.56 97.7631 61.64C97.5498 61.72 97.3098 61.76 97.0431 61.76ZM102.203 57C102.71 57 103.07 56.8933 103.283 56.68C103.523 56.44 103.643 56.0667 103.643 55.56V48.92H108.243C111.87 48.92 114.35 48.2 115.683 46.76C117.016 45.32 117.683 43.44 117.683 41.12V36C117.683 33.68 117.016 31.8 115.683 30.36C114.35 28.92 111.87 28.2 108.243 28.2H96.0031C95.4965 28.2 95.1231 28.32 94.8831 28.56C94.6698 28.7733 94.5631 29.1333 94.5631 29.64V55.56C94.5631 56.0667 94.6698 56.44 94.8831 56.68C95.1231 56.8933 95.4965 57 96.0031 57H102.203ZM107.683 45.52H99.4431V53.4H99.0431V31.8H107.683C108.936 31.8 109.95 31.9467 110.723 32.24C111.523 32.5067 112.136 32.88 112.563 33.36C112.99 33.84 113.283 34.4133 113.443 35.08C113.603 35.7467 113.683 36.4667 113.683 37.24V40.2C113.683 40.9733 113.603 41.6933 113.443 42.36C113.283 43 112.99 43.56 112.563 44.04C112.136 44.4933 111.523 44.8533 110.723 45.12C109.95 45.3867 108.936 45.52 107.683 45.52ZM99.4431 45.12H107.683C108.856 45.12 109.803 45 110.523 44.76C111.27 44.52 111.843 44.1867 112.243 43.76C112.643 43.3067 112.91 42.7867 113.043 42.2C113.203 41.5867 113.283 40.92 113.283 40.2V37.24C113.283 36.52 113.203 35.8533 113.043 35.24C112.91 34.6267 112.643 34.0933 112.243 33.64C111.843 33.1867 111.27 32.84 110.523 32.6C109.803 32.3333 108.856 32.2 107.683 32.2H99.4431V45.12ZM103.563 35.68H107.163C107.936 35.68 108.443 35.88 108.683 36.28C108.923 36.68 109.043 37.1333 109.043 37.64V39.76C109.043 40.2667 108.923 40.72 108.683 41.12C108.443 41.52 107.936 41.72 107.163 41.72H103.563V35.68ZM130.172 53.4V31.8H130.572V42.4H145.932V31.8H146.332V53.4H145.932V42.8H130.572V53.4H130.172ZM133.492 57C133.999 57 134.359 56.8933 134.572 56.68C134.812 56.44 134.932 56.0667 134.932 55.56V46.68H141.612V55.56C141.612 56.0667 141.719 56.44 141.932 56.68C142.172 56.8933 142.546 57 143.052 57H149.252C149.759 57 150.119 56.8933 150.332 56.68C150.572 56.44 150.692 56.0667 150.692 55.56V29.64C150.692 29.1333 150.572 28.7733 150.332 28.56C150.119 28.32 149.759 28.2 149.252 28.2H143.052C142.546 28.2 142.172 28.32 141.932 28.56C141.719 28.7733 141.612 29.1333 141.612 29.64V38.32H134.932V29.64C134.932 29.1333 134.812 28.7733 134.572 28.56C134.359 28.32 133.999 28.2 133.492 28.2H127.292C126.786 28.2 126.412 28.32 126.172 28.56C125.959 28.7733 125.852 29.1333 125.852 29.64V55.56C125.852 56.0667 125.959 56.44 126.172 56.68C126.412 56.8933 126.786 57 127.292 57H133.492ZM134.772 57.04L129.572 61.36C129.466 61.4667 129.292 61.56 129.052 61.64C128.839 61.72 128.599 61.76 128.332 61.76H122.132C121.492 61.76 121.026 61.6133 120.732 61.32C120.439 61.0267 120.292 60.56 120.292 59.92V34C120.292 33.6533 120.332 33.36 120.412 33.12C120.519 32.88 120.666 32.68 120.852 32.52L126.012 28.16C126.146 28.0533 126.319 27.9733 126.532 27.92C126.772 27.84 127.026 27.8 127.292 27.8H133.492C134.132 27.8 134.599 27.9467 134.892 28.24C135.186 28.5333 135.332 29 135.332 29.64V37.92H136.052V34C136.052 33.6533 136.092 33.36 136.172 33.12C136.279 32.88 136.426 32.68 136.612 32.52L141.772 28.16C141.906 28.0533 142.079 27.9733 142.292 27.92C142.532 27.84 142.786 27.8 143.052 27.8H149.252C149.892 27.8 150.359 27.9467 150.652 28.24C150.946 28.5333 151.092 29 151.092 29.64V55.56C151.092 55.9067 151.039 56.2 150.932 56.44C150.852 56.68 150.719 56.88 150.532 57.04L145.332 61.36C145.226 61.4667 145.052 61.56 144.812 61.64C144.599 61.72 144.359 61.76 144.092 61.76H137.892C137.252 61.76 136.786 61.6133 136.492 61.32C136.199 61.0267 136.052 60.56 136.052 59.92V51.44H135.332V55.56C135.332 55.9067 135.279 56.2 135.172 56.44C135.092 56.68 134.959 56.88 134.772 57.04ZM175.067 61.76H156.507C155.867 61.76 155.401 61.6133 155.107 61.32C154.814 61.0267 154.667 60.56 154.667 59.92V34C154.667 33.6533 154.707 33.36 154.787 33.12C154.894 32.88 155.041 32.68 155.227 32.52L160.387 28.16C160.521 28.0533 160.694 27.9733 160.907 27.92C161.147 27.84 161.401 27.8 161.667 27.8H180.227C180.867 27.8 181.334 27.9467 181.627 28.24C181.921 28.5333 182.067 29 182.067 29.64V34.32C182.067 34.6667 182.014 34.96 181.907 35.2C181.827 35.44 181.694 35.64 181.507 35.8L178.067 38.64C178.334 38.7733 178.521 38.9733 178.627 39.24C178.761 39.5067 178.827 39.8533 178.827 40.28V44.56C178.827 44.9067 178.774 45.2 178.667 45.44C178.587 45.68 178.454 45.88 178.267 46.04L174.707 49.04H180.227C180.867 49.04 181.334 49.1867 181.627 49.48C181.921 49.7733 182.067 50.24 182.067 50.88V55.56C182.067 55.9067 182.014 56.2 181.907 56.44C181.827 56.68 181.694 56.88 181.507 57.04L176.307 61.36C176.201 61.4667 176.027 61.56 175.787 61.64C175.574 61.72 175.334 61.76 175.067 61.76ZM180.227 57C180.734 57 181.094 56.8933 181.307 56.68C181.547 56.44 181.667 56.0667 181.667 55.56V50.88C181.667 50.3733 181.547 50.0133 181.307 49.8C181.094 49.56 180.734 49.44 180.227 49.44H169.187V46H176.987C177.494 46 177.854 45.8933 178.067 45.68C178.307 45.44 178.427 45.0667 178.427 44.56V40.28C178.427 39.7733 178.307 39.4133 178.067 39.2C177.854 38.96 177.494 38.84 176.987 38.84H169.187V35.76H180.227C180.734 35.76 181.094 35.6533 181.307 35.44C181.547 35.2 181.667 34.8267 181.667 34.32V29.64C181.667 29.1333 181.547 28.7733 181.307 28.56C181.094 28.32 180.734 28.2 180.227 28.2H161.667C161.161 28.2 160.787 28.32 160.547 28.56C160.334 28.7733 160.227 29.1333 160.227 29.64V55.56C160.227 56.0667 160.334 56.44 160.547 56.68C160.787 56.8933 161.161 57 161.667 57H180.227ZM178.067 53V53.4H164.587V31.8H178.067V32.2H164.987V42.24H174.827V42.64H164.987V53H178.067ZM203.823 32.2H195.103V43.76H203.823C205.477 43.76 206.583 43.36 207.143 42.56C207.703 41.76 207.983 40.6267 207.983 39.16V36.36C207.983 35.1333 207.637 34.1333 206.943 33.36C206.277 32.5867 205.237 32.2 203.823 32.2ZM199.423 35.4H202.423C203.117 35.4 203.583 35.5867 203.823 35.96C204.063 36.3067 204.183 36.7467 204.183 37.28V38.64C204.183 39.1733 204.063 39.6267 203.823 40C203.583 40.3467 203.117 40.52 202.423 40.52H199.423V35.4ZM195.103 53.4H194.703V31.8H203.823C205.37 31.8 206.517 32.24 207.263 33.12C208.01 33.9733 208.383 35.0533 208.383 36.36V39.12C208.383 40.3467 208.223 41.36 207.903 42.16C207.583 42.9333 206.943 43.4667 205.983 43.76H206.423C208.05 43.76 209.263 44.1333 210.063 44.88C210.863 45.6 211.263 46.6533 211.263 48.04V53.4H210.863V48.04C210.863 46.7333 210.503 45.76 209.783 45.12C209.063 44.4533 207.943 44.12 206.423 44.12H195.103V53.4ZM197.983 57C198.49 57 198.85 56.8933 199.063 56.68C199.303 56.44 199.423 56.0667 199.423 55.56V47.72H205.023C205.583 47.72 205.97 47.8667 206.183 48.16C206.423 48.4267 206.543 48.8533 206.543 49.44V55.56C206.543 56.0667 206.65 56.44 206.863 56.68C207.103 56.8933 207.477 57 207.983 57H214.183C214.69 57 215.05 56.8933 215.263 56.68C215.503 56.44 215.623 56.0667 215.623 55.56V47.08C215.623 45.4 215.17 44.0533 214.263 43.04C213.383 42.0267 212.223 41.44 210.783 41.28C211.61 40.9333 212.183 40.3733 212.503 39.6C212.85 38.8 213.023 37.84 213.023 36.72V34.88C213.023 32.9067 212.45 31.3067 211.303 30.08C210.183 28.8267 208.13 28.2 205.143 28.2H191.823C191.317 28.2 190.943 28.32 190.703 28.56C190.49 28.7733 190.383 29.1333 190.383 29.64V55.56C190.383 56.0667 190.49 56.44 190.703 56.68C190.943 56.8933 191.317 57 191.823 57H197.983ZM199.263 57.04L194.063 61.36C193.957 61.4667 193.783 61.56 193.543 61.64C193.33 61.72 193.09 61.76 192.823 61.76H186.663C186.023 61.76 185.557 61.6133 185.263 61.32C184.97 61.0267 184.823 60.56 184.823 59.92V34C184.823 33.6533 184.863 33.36 184.943 33.12C185.05 32.88 185.197 32.68 185.383 32.52L190.543 28.16C190.677 28.0533 190.85 27.9733 191.063 27.92C191.303 27.84 191.557 27.8 191.823 27.8H205.143C208.317 27.8 210.49 28.4667 211.663 29.8C212.837 31.1067 213.423 32.8 213.423 34.88V36.72C213.423 37.7067 213.303 38.5733 213.063 39.32C212.823 40.04 212.437 40.6267 211.903 41.08H211.863C213.117 41.4267 214.117 42.12 214.863 43.16C215.637 44.2 216.023 45.5067 216.023 47.08V55.56C216.023 55.9067 215.97 56.2 215.863 56.44C215.783 56.68 215.65 56.88 215.463 57.04L210.263 61.36C210.157 61.4667 209.983 61.56 209.743 61.64C209.53 61.72 209.29 61.76 209.023 61.76H202.823C202.183 61.76 201.717 61.6133 201.423 61.32C201.13 61.0267 200.983 60.56 200.983 59.92V53.8C200.983 53.3733 200.903 53.0533 200.743 52.84C200.583 52.6 200.29 52.48 199.863 52.48H199.823V55.56C199.823 55.9067 199.77 56.2 199.663 56.44C199.583 56.68 199.45 56.88 199.263 57.04ZM219.654 61.76C219.014 61.76 218.548 61.6133 218.254 61.32C217.961 61.0267 217.814 60.56 217.814 59.92V55.24C217.814 54.8933 217.854 54.6 217.934 54.36C218.041 54.12 218.188 53.92 218.374 53.76L222.374 50.4C220.961 49.9733 219.841 49.2533 219.014 48.24C218.214 47.2 217.814 45.72 217.814 43.8V39.6C217.814 38.4 218.014 37.3333 218.414 36.4C218.814 35.4667 219.388 34.68 220.134 34.04L225.334 29.68C226.054 29.0933 226.948 28.64 228.014 28.32C229.081 27.9733 230.294 27.8 231.654 27.8H242.854C243.494 27.8 243.961 27.9467 244.254 28.24C244.548 28.5333 244.694 29 244.694 29.64V34.4C244.694 34.7467 244.641 35.04 244.534 35.28C244.454 35.52 244.321 35.72 244.134 35.88L240.534 38.88C242.214 39.2533 243.561 39.96 244.574 41C245.614 42.0133 246.134 43.6 246.134 45.76V49.96C246.134 51.16 245.934 52.2267 245.534 53.16C245.134 54.0933 244.548 54.88 243.774 55.52L238.614 59.84C237.868 60.4533 236.961 60.92 235.894 61.24C234.828 61.5867 233.628 61.76 232.294 61.76H219.654ZM237.454 57C240.014 57 242.028 56.4 243.494 55.2C244.988 53.9733 245.734 52.2267 245.734 49.96V45.76C245.734 43.52 245.161 41.92 244.014 40.96C242.868 40 241.361 39.3867 239.494 39.12L233.534 38.32C233.188 38.2933 232.921 38.16 232.734 37.92C232.548 37.68 232.454 37.3867 232.454 37.04C232.454 36.6933 232.548 36.4133 232.734 36.2C232.921 35.96 233.188 35.84 233.534 35.84H242.854C243.361 35.84 243.721 35.7333 243.934 35.52C244.174 35.28 244.294 34.9067 244.294 34.4V29.64C244.294 29.1333 244.174 28.7733 243.934 28.56C243.721 28.32 243.361 28.2 242.854 28.2H231.654C229.068 28.2 227.041 28.8133 225.574 30.04C224.108 31.24 223.374 32.9733 223.374 35.24V39.44C223.374 41.68 223.934 43.28 225.054 44.24C226.201 45.2 227.708 45.8133 229.574 46.08L235.574 46.92C235.921 46.9467 236.174 47.0667 236.334 47.28C236.521 47.4933 236.614 47.8267 236.614 48.28C236.614 48.6 236.521 48.88 236.334 49.12C236.174 49.3333 235.921 49.44 235.574 49.44H224.814C224.308 49.44 223.934 49.56 223.694 49.8C223.481 50.0133 223.374 50.3733 223.374 50.88V55.56C223.374 56.0667 223.481 56.44 223.694 56.68C223.934 56.8933 224.308 57 224.814 57H237.454ZM240.694 31.8V32.2H231.814C230.694 32.2 229.801 32.5067 229.134 33.12C228.468 33.7333 228.134 34.5067 228.134 35.44V38.72C228.134 39.6533 228.321 40.3067 228.694 40.68C229.068 41.0533 229.561 41.2933 230.174 41.4L238.614 43.12C239.414 43.28 240.068 43.6267 240.574 44.16C241.108 44.6933 241.374 45.6533 241.374 47.04V49.36C241.374 50.5333 240.974 51.5067 240.174 52.28C239.374 53.0267 238.294 53.4 236.934 53.4H226.974V53H236.934C238.161 53 239.134 52.6667 239.854 52C240.601 51.3067 240.974 50.4267 240.974 49.36V47.04C240.974 45.7867 240.748 44.9333 240.294 44.48C239.868 44 239.281 43.68 238.534 43.52L230.094 41.8C229.401 41.6667 228.828 41.4 228.374 41C227.948 40.5733 227.734 39.8133 227.734 38.72V35.44C227.734 34.3733 228.108 33.5067 228.854 32.84C229.601 32.1467 230.588 31.8 231.814 31.8H240.694Z" fill="black"/>
<path d="M15.47 64.33C14.3967 64.33 13.5333 64.12 12.88 63.7C12.2267 63.3267 11.69 62.6267 11.27 61.6L4.41 44.45C3.99 43.3767 3.61667 42.4667 3.29 41.72C3.01 40.9267 2.77667 40.18 2.59 39.48C2.40333 38.7333 2.26333 37.9633 2.17 37.17C2.12333 36.33 2.1 35.35 2.1 34.23V15.75C2.1 15.1433 2.17 14.63 2.31 14.21C2.49667 13.79 2.75333 13.44 3.08 13.16L12.11 5.53C12.3433 5.34333 12.6467 5.20333 13.02 5.11C13.44 4.97 13.8833 4.9 14.35 4.9H25.48C26.6 4.9 27.44 5.18 28 5.74C28.6067 6.25333 28.91 7.04667 28.91 8.12V27.44C28.91 27.9067 28.9567 28.35 29.05 28.77C29.1433 29.19 29.26 29.6333 29.4 30.1L29.61 30.59V15.75C29.61 15.1433 29.68 14.63 29.82 14.21C30.0067 13.79 30.2633 13.44 30.59 13.16L39.62 5.53C39.8533 5.34333 40.1567 5.20333 40.53 5.11C40.95 4.97 41.3933 4.9 41.86 4.9H52.85C54.0167 4.9 54.8333 5.15666 55.3 5.67C55.8133 6.18333 56.07 7 56.07 8.12V26.6C56.07 27.72 56.0233 28.7 55.93 29.54C55.8833 30.3333 55.7667 31.1033 55.58 31.85C55.3933 32.55 55.1367 33.2967 54.81 34.09C54.53 34.8367 54.18 35.7467 53.76 36.82L46.9 53.97C46.76 54.39 46.5733 54.7633 46.34 55.09C46.1067 55.4167 45.8733 55.6733 45.64 55.86L36.61 63.35C36.2367 63.6767 35.7933 63.91 35.28 64.05C34.8133 64.2367 34.2767 64.33 33.67 64.33H15.47ZM42.7 56C43.5867 56 44.31 55.8367 44.87 55.51C45.4767 55.1833 45.9433 54.5767 46.27 53.69L53.13 36.54C53.55 35.5133 53.9 34.6267 54.18 33.88C54.46 33.0867 54.6933 32.34 54.88 31.64C55.0667 30.94 55.1833 30.2167 55.23 29.47C55.3233 28.6767 55.37 27.72 55.37 26.6V8.12C55.37 7.23333 55.16 6.60333 54.74 6.23C54.3667 5.81 53.7367 5.6 52.85 5.6H41.86C40.9733 5.6 40.32 5.81 39.9 6.23C39.5267 6.60333 39.34 7.23333 39.34 8.12V27.37C39.34 27.8367 39.2933 28.3033 39.2 28.77C39.1067 29.2367 38.9667 29.7267 38.78 30.24L35.49 40.11C35.35 40.5767 35.1867 40.9033 35 41.09C34.8133 41.23 34.5333 41.3 34.16 41.3H33.39C33.0167 41.3 32.7367 41.23 32.55 41.09C32.3633 40.9033 32.2 40.5767 32.06 40.11L28.77 30.31C28.5833 29.7967 28.4433 29.3067 28.35 28.84C28.2567 28.3733 28.21 27.9067 28.21 27.44V8.12C28.21 7.23333 27.9767 6.60333 27.51 6.23C27.0433 5.81 26.3667 5.6 25.48 5.6H14.35C13.4633 5.6 12.81 5.81 12.39 6.23C12.0167 6.60333 11.83 7.23333 11.83 8.12V26.6C11.83 27.72 11.8533 28.6767 11.9 29.47C11.9933 30.2167 12.1333 30.94 12.32 31.64C12.5067 32.34 12.74 33.0867 13.02 33.88C13.3 34.6267 13.65 35.5133 14.07 36.54L20.93 53.69C21.2567 54.5767 21.7 55.1833 22.26 55.51C22.8667 55.8367 23.6133 56 24.5 56H42.7ZM19.74 11.9H20.44V27.02C20.44 28.2333 20.5333 29.4 20.72 30.52C20.9067 31.5933 21.1867 32.5967 21.56 33.53L26.18 44.73C26.6467 45.9433 27.16 46.97 27.72 47.81C28.3267 48.6033 29.2833 49 30.59 49H36.75C38.0567 49 38.99 48.6033 39.55 47.81C40.1567 46.97 40.6933 45.9433 41.16 44.73L45.78 33.53C46.1533 32.5967 46.4333 31.5933 46.62 30.52C46.8067 29.4 46.9 28.2333 46.9 27.02V11.9H47.6V27.02C47.6 28.3267 47.5067 29.54 47.32 30.66C47.18 31.7333 46.9 32.7833 46.48 33.81L41.86 45.01C41.3 46.3633 40.67 47.4833 39.97 48.37C39.27 49.2567 38.1967 49.7 36.75 49.7H30.59C29.1433 49.7 28.07 49.2567 27.37 48.37C26.67 47.4833 26.04 46.3633 25.48 45.01L20.86 33.81C20.44 32.7833 20.1367 31.7333 19.95 30.66C19.81 29.54 19.74 28.3267 19.74 27.02V11.9Z" fill="#1125FD"/>
</g>
<defs>
<clipPath id="clip0_26_2">
<rect width="250" height="70" fill="white"/>
</clipPath>
</defs>
</svg>
