<svg width="32" height="32" viewBox="0 0 32 32" fill="none" xmlns="http://www.w3.org/2000/svg">
<g clip-path="url(#clip0_66_27)">
<rect width="32" height="32" fill="white"/>
<path d="M19.365 26H12.345C12.003 26 11.715 25.937 11.481 25.811C11.265 25.685 11.094 25.451 10.968 25.109L8.322 18.494C8.16 18.098 8.025 17.756 7.917 17.468C7.809 17.162 7.719 16.874 7.647 16.604C7.575 16.334 7.521 16.055 7.485 15.767C7.467 15.461 7.458 15.092 7.458 14.66V7.532C7.458 7.19 7.53 6.947 7.674 6.803C7.836 6.641 8.088 6.56 8.43 6.56H12.723C13.065 6.56 13.326 6.641 13.506 6.803C13.686 6.947 13.776 7.19 13.776 7.532V14.984C13.776 15.164 13.794 15.344 13.83 15.524C13.866 15.704 13.92 15.893 13.992 16.091L15.261 19.871C15.315 20.051 15.378 20.177 15.45 20.249C15.522 20.303 15.63 20.33 15.774 20.33H16.071C16.215 20.33 16.323 20.303 16.395 20.249C16.467 20.177 16.53 20.051 16.584 19.871L17.853 16.064C17.925 15.866 17.979 15.677 18.015 15.497C18.051 15.317 18.069 15.137 18.069 14.957V7.532C18.069 7.19 18.141 6.947 18.285 6.803C18.447 6.641 18.699 6.56 19.041 6.56H23.28C23.622 6.56 23.865 6.641 24.009 6.803C24.171 6.947 24.252 7.19 24.252 7.532V14.66C24.252 15.092 24.234 15.461 24.198 15.767C24.18 16.055 24.135 16.334 24.063 16.604C23.991 16.874 23.901 17.162 23.793 17.468C23.685 17.756 23.55 18.098 23.388 18.494L20.742 25.109C20.616 25.451 20.436 25.685 20.202 25.811C19.986 25.937 19.707 26 19.365 26ZM10.509 8.99V14.822C10.509 15.326 10.536 15.794 10.59 16.226C10.662 16.64 10.779 17.045 10.941 17.441L12.723 21.761C12.939 22.283 13.182 22.715 13.452 23.057C13.722 23.399 14.136 23.57 14.694 23.57H17.07C17.628 23.57 18.042 23.399 18.312 23.057C18.582 22.715 18.825 22.283 19.041 21.761L20.823 17.441C20.985 17.045 21.093 16.64 21.147 16.226C21.219 15.794 21.255 15.326 21.255 14.822V8.99H20.985V14.822C20.985 15.29 20.949 15.74 20.877 16.172C20.805 16.586 20.697 16.973 20.553 17.333L18.771 21.653C18.591 22.121 18.384 22.517 18.15 22.841C17.934 23.147 17.574 23.3 17.07 23.3H14.694C14.19 23.3 13.821 23.147 13.587 22.841C13.371 22.517 13.173 22.121 12.993 21.653L11.211 17.333C11.067 16.973 10.959 16.586 10.887 16.172C10.815 15.74 10.779 15.29 10.779 14.822V8.99H10.509Z" fill="#1125FD"/>
<line x1="0.5" x2="0.5" y2="32" stroke="#1125FD"/>
<line x1="31.5" x2="31.5" y2="32" stroke="#1125FD"/>
<line x1="1" y1="31.5" x2="31" y2="31.5" stroke="#1125FD"/>
<line x1="1" y1="0.5" x2="31" y2="0.5" stroke="#1125FD"/>
</g>
<defs>
<clipPath id="clip0_66_27">
<rect width="32" height="32" fill="white"/>
</clipPath>
</defs>
</svg>
